<svg width="138" height="218" viewBox="0 0 138 218" fill="none" xmlns="http://www.w3.org/2000/svg">
<path d="M31.5 69H0.5C0.5 31.1685 31.1685 0.5 69 0.5C106.832 0.5 137.5 31.1685 137.5 69H106.5C106.5 48.2893 89.7107 31.5 69 31.5C48.2893 31.5 31.5 48.2893 31.5 69Z" fill="white"/>
<path d="M69 80.5V111.5C48.2893 111.5 31.5 128.289 31.5 149C31.5 169.711 48.2893 186.5 69 186.5C89.7107 186.5 106.5 169.711 106.5 149H137.5C137.5 186.832 106.832 217.5 69 217.5C31.1685 217.5 0.5 186.832 0.5 149C0.5 111.168 31.1685 80.5 69 80.5Z" fill="white"/>
</svg>
